<svg width="107" height="48" viewBox="0 0 107 48" fill="none" xmlns="http://www.w3.org/2000/svg">
<path d="M31.2782 11C32.1267 11 32.8146 11.6879 32.8146 12.5364V14.649H14.5695C13.5089 14.649 12.649 15.5089 12.649 16.5695V27.7086H12.5896C12.5452 27.7086 12.5021 27.7239 12.4678 27.7519L9.31359 30.3329C9.18819 30.4353 9 30.3461 9 30.1841V12.5364C9 11.6879 9.68788 11 10.5364 11H31.2782Z" fill="#B2EBF2"/>
<path d="M37.4637 16.9932C38.3123 16.9932 39.0001 17.681 39.0001 18.5296V25.4435H28.6293V27.172H39.0001V28.9005H25.3644V30.6289H39.0001V32.1654C39.0001 33.0139 38.3123 33.7018 37.4637 33.7018H18.7751C18.7308 33.7018 18.6877 33.7171 18.6534 33.7451L15.4991 36.326C15.3737 36.4285 15.1855 36.3393 15.1855 36.1773V18.5296C15.1855 17.681 15.8734 16.9932 16.722 16.9932H37.4637Z" fill="#00BCD4"/>
<path d="M73.912 28.984V32.776H53.176V28.984H61.48V25.672H54.304V13.48H72.784V25.672H65.608V28.984H73.912ZM58.336 21.904H68.752V17.272H58.336V21.904ZM94.4779 22.936H76.0219V13.12H80.1739V19.192H94.4779V22.936ZM95.5579 28.408H91.2139V33.976H87.1819V28.408H83.1979V33.976H79.1659V28.408H74.8219V24.688H95.5579V28.408Z" fill="#1F2937"/>
</svg>
