<svg width="20" height="20" viewBox="0 0 20 20" fill="none" xmlns="http://www.w3.org/2000/svg">
<g clip-path="url(#clip0_166_11537)">
<path d="M9.87481 1C9.25255 1 8.74981 1.50273 8.74981 2.125V2.8C6.18341 3.32031 4.24982 5.59141 4.24982 8.3125V8.97344C4.24982 10.6258 3.64161 12.2219 2.54474 13.4594L2.28458 13.7512C1.98927 14.0816 1.91896 14.5563 2.09825 14.9605C2.27755 15.3648 2.68185 15.625 3.12482 15.625H16.6248C17.0678 15.625 17.4686 15.3648 17.6514 14.9605C17.8342 14.5563 17.7604 14.0816 17.465 13.7512L17.2049 13.4594C16.108 12.2219 15.4998 10.6293 15.4998 8.97344V8.3125C15.4998 5.59141 13.5662 3.32031 10.9998 2.8V2.125C10.9998 1.50273 10.4971 1 9.87481 1ZM11.4674 18.3426C11.8893 17.9207 12.1248 17.3477 12.1248 16.75H9.87481H7.62481C7.62481 17.3477 7.86036 17.9207 8.28224 18.3426C8.70411 18.7645 9.27716 19 9.87481 19C10.4725 19 11.0455 18.7645 11.4674 18.3426Z" fill="#00BCD4"/>
</g>
<defs>
<clipPath id="clip0_166_11537">
<path d="M2 1H17.75V19H2V1Z" fill="white"/>
</clipPath>
</defs>
</svg>
