<svg width="16" height="16" viewBox="0 0 16 16" fill="none" xmlns="http://www.w3.org/2000/svg">
<path d="M3.5999 12.4004H4.4499L10.6999 6.15039L9.8499 5.30039L3.5999 11.5504V12.4004ZM2.3999 13.6004V11.0504L10.6999 2.75039C10.8221 2.62817 10.9546 2.53928 11.0972 2.48372C11.2398 2.42817 11.3898 2.40039 11.5472 2.40039C11.7046 2.40039 11.8555 2.42817 11.9999 2.48372C12.1443 2.53928 12.2777 2.62817 12.3999 2.75039L13.2499 3.60039C13.3721 3.72261 13.461 3.85595 13.5166 4.00039C13.5721 4.14483 13.5999 4.29228 13.5999 4.44272C13.5999 4.60328 13.572 4.75628 13.5162 4.90172C13.4605 5.04717 13.3717 5.18006 13.2499 5.30039L4.9499 13.6004H2.3999ZM10.2674 5.73289L9.8499 5.30039L10.6999 6.15039L10.2674 5.73289Z" fill="#989FAC"/>
</svg>
