<svg width="24" height="24" viewBox="0 0 24 24" fill="none" xmlns="http://www.w3.org/2000/svg">
<path fill-rule="evenodd" clip-rule="evenodd" d="M4.45084 6.5193C2.64063 8.31949 2.49043 11.1977 4.19174 13.0999C4.90111 13.8931 5.64486 14.6967 6.30532 15.3535C7.87526 16.9147 10.2793 18.944 11.3937 19.8697C11.5692 20.0154 11.7867 20.0802 11.9996 20.0666C12.2126 20.0803 12.4303 20.0156 12.6059 19.8697C13.7204 18.9442 16.1243 16.9152 17.6942 15.3541C18.3548 14.6971 19.0988 13.8932 19.8083 13.0998C21.5096 11.1975 21.3593 8.31939 19.5492 6.51927C17.6038 4.5847 14.4498 4.58473 12.5044 6.51933L12 7.02098L11.4954 6.51924C9.55013 4.58473 6.39617 4.58476 4.45084 6.5193Z" fill="#D1D5DB"/>
</svg>
