<svg width="16" height="16" viewBox="0 0 16 16" fill="none" xmlns="http://www.w3.org/2000/svg">
<path d="M7.14697 1.14844C10.4595 1.14863 13.1458 3.83391 13.146 7.14648C13.146 8.51468 12.6858 9.77484 11.9146 10.7842L14.9907 13.8594L14.4243 14.4248L13.8589 14.9912L10.7837 11.915C9.77453 12.686 8.51479 13.1454 7.14697 13.1455C3.83421 13.1454 1.14893 10.4593 1.14893 7.14648C1.14912 3.83386 3.83433 1.14856 7.14697 1.14844ZM7.14697 2.74805C4.71799 2.74817 2.74873 4.71752 2.74854 7.14648C2.74854 9.57561 4.71787 11.5448 7.14697 11.5449C9.57601 11.5447 11.5454 9.57557 11.5454 7.14648C11.5452 4.71756 9.57589 2.74824 7.14697 2.74805Z" fill="#1F2937"/>
</svg>
