<?xml version="1.0" encoding="UTF-8"?>
<svg id="_레이어_1" data-name="레이어 1" xmlns="http://www.w3.org/2000/svg" width="30" height="25.37" viewBox="0 0 30 25.37">
  <defs>
    <style>
      .cls-1 {
        fill: #d1d5db;
      }

      .cls-2 {
        fill: #989fac;
      }
    </style>
  </defs>
  <path class="cls-1" d="M22.28,0c.85,0,1.54,.69,1.54,1.54V3.65H5.57c-1.06,0-1.92,.86-1.92,1.92v11.14h-.06s-.09,.02-.12,.04L.31,19.33c-.13,.1-.31,.01-.31-.15V1.54C0,.69,.69,0,1.54,0H22.28Z"/>
  <path class="cls-2" d="M28.46,5.99c.85,0,1.54,.69,1.54,1.54v6.91h-10.37v1.73h10.37v1.73h-13.64v1.73h13.64v1.54c0,.85-.69,1.54-1.54,1.54H9.78s-.09,.02-.12,.04l-3.15,2.58c-.13,.1-.31,.01-.31-.15V7.53c0-.85,.69-1.54,1.54-1.54H28.46Z"/>
</svg>